# xmcd
#
# Track frame offsets:
#	150
#	24990
#	44192
#	67817
#	91217
#	110340
#	128795
#	146117
#	169672
#	190145
#	217972
#	239297
#
# Disc length: 3302 seconds
#
# Revision: 2
# Processed by: cddbd v1.5.2PL0 Copyright (c) Steve Scherf et al.
# Submitted via: MusicWizard 7.2.0
#
DISCID=a40ce40c
DTITLE=DeFrancesco Joey - Goodfellas
DYEAR=1998
DGENRE=Organ
TTITLE0=Speak Softly Love
TTITLE1=Volaré
TTITLE2=Fly Me To The Moon
TTITLE3=All The Way
TTITLE4=Whack' Em
TTITLE5=Malafemmena
TTITLE6=Young At Heart
TTITLE7=O Solo Mio
TTITLE8=Evidence
TTITLE9=Goodfellas
TTITLE10=Ya See What I'm Saying?
TTITLE11=Whack'em (Reprise) - Tarentella
EXTD=Joey DeFrancesco org - Frank Vignola g - Joe Ascione dr;\n
EXTT0=
EXTT1=
EXTT2=
EXTT3=
EXTT4=
EXTT5=
EXTT6=
EXTT7=
EXTT8=
EXTT9=
EXTT10=
EXTT11=
PLAYORDER=
